<?xml version="1.0" encoding="UTF-8" standalone="no"?><!DOCTYPE svg PUBLIC "-//W3C//DTD SVG 1.1//EN" "http://www.w3.org/Graphics/SVG/1.1/DTD/svg11.dtd"><svg width="100%" height="100%" viewBox="0 0 456 456" version="1.1" xmlns="http://www.w3.org/2000/svg" xmlns:xlink="http://www.w3.org/1999/xlink" xml:space="preserve" xmlns:serif="http://www.serif.com/" style="fill-rule:evenodd;clip-rule:evenodd;stroke-linejoin:round;stroke-miterlimit:2;"><circle cx="227.738" cy="228.286" r="227.654" style="fill-opacity:0.16;"/><clipPath id="_clip1"><circle cx="227.738" cy="228.286" r="227.654"/></clipPath><g clip-path="url(#_clip1)"><path d="M227.738,228.286c40.297,0 72.957,-32.66 72.957,-72.957c0,-40.298 -32.66,-72.958 -72.957,-72.958c-40.298,0 -72.958,32.66 -72.958,72.958c0,40.297 32.66,72.957 72.958,72.957Zm51.07,18.239l-9.519,0c-12.653,5.814 -26.732,9.12 -41.551,9.12c-14.82,0 -28.841,-3.306 -41.552,-9.12l-9.518,0c-42.293,0 -76.606,34.313 -76.606,76.606l0,23.711c0,15.104 12.255,27.359 27.359,27.359l200.633,0c15.105,0 27.359,-12.255 27.359,-27.359l0,-23.711c0,-42.293 -34.313,-76.606 -76.605,-76.606Z" style="fill-opacity:0.54;fill-rule:nonzero;"/></g></svg>