<?xml version="1.0" encoding="UTF-8" standalone="no"?><!DOCTYPE svg PUBLIC "-//W3C//DTD SVG 1.1//EN" "http://www.w3.org/Graphics/SVG/1.1/DTD/svg11.dtd"><svg width="100%" height="100%" viewBox="0 0 255 55" version="1.1" xmlns="http://www.w3.org/2000/svg" xmlns:xlink="http://www.w3.org/1999/xlink" xml:space="preserve" xmlns:serif="http://www.serif.com/" style="fill-rule:evenodd;clip-rule:evenodd;stroke-linecap:round;stroke-linejoin:round;stroke-miterlimit:1.5;"><g id="Logo"><text x="0.77px" y="39.109px" style="font-family:'BrushScriptMT', 'Brush Script MT', cursive;font-style:italic;font-size:49.408px;fill:#fff;">S<tspan x="31.778px 42.77px 69.254px 88.731px 99.723px 113.739px 142.731px 160.262px 179.739px " y="39.109px 39.109px 39.109px 39.109px 39.109px 39.109px 39.109px 39.109px 39.109px ">impleChat</tspan></text><path d="M253.443,10.789l-3.278,3.374c-0.334,0.344 -0.874,0.344 -1.209,0l-7.892,-8.124c-0.334,-0.344 -0.334,-0.9 0,-1.244l3.278,-3.374c1.329,-1.369 3.491,-1.369 4.828,0l4.273,4.399c1.337,1.368 1.337,3.593 0,4.969Zm-15.195,-3.096l-18.671,19.22l-1.508,8.892c-0.206,1.2 0.811,2.24 1.977,2.035l8.639,-1.559l18.672,-19.22c0.334,-0.344 0.334,-0.9 0,-1.244l-7.893,-8.124c-0.341,-0.344 -0.882,-0.344 -1.216,0Zm-11.383,17.573c-0.391,-0.403 -0.391,-1.047 0,-1.449l10.95,-11.271c0.391,-0.403 1.016,-0.403 1.407,0c0.391,0.402 0.391,1.046 0,1.449l-10.949,11.271c-0.391,0.402 -1.017,0.402 -1.408,0Zm-2.567,6.155l3.413,0l0,2.657l-4.586,0.827l-2.211,-2.276l0.803,-4.721l2.581,0l0,3.513Z" style="fill:#fff;fill-rule:nonzero;"/><path d="M1.239,53.72l179.67,0c0,0 34.308,-2.627 37.134,-15.854" style="fill:none;stroke:#fff;stroke-width:2px;"/></g></svg>